<svg width="16" height="16" viewBox="0 0 16 16" fill="none" xmlns="http://www.w3.org/2000/svg">
<path d="M14.9919 2.16002H12.7037V0.768152C12.7037 0.560024 12.5437 0.400024 12.3356 0.400024H10.6562C10.4481 0.400024 10.2881 0.560024 10.2881 0.768152V2.16002H5.7118V0.768152C5.7118 0.560024 5.5518 0.400024 5.34367 0.400024H3.66367C3.45554 0.400024 3.29554 0.560024 3.29554 0.768152V2.16002H1.00802C0.816149 2.16002 0.639893 2.32002 0.639893 2.52815V15.2482C0.639893 15.4563 0.799893 15.6163 1.00802 15.6163H14.9917C15.1836 15.6163 15.3598 15.4563 15.3598 15.2482V2.52815C15.3598 2.32002 15.1836 2.16002 14.9917 2.16002H14.9919ZM11.0082 1.13628H11.9682V3.24812H11.0082V1.13628ZM4.01637 1.13628H4.97637V3.24812H4.01637V1.13628ZM14.6239 14.8638H1.37637V5.5038H14.6245L14.6239 14.8638Z" fill="#545F7D"/>
</svg>
